<svg xmlns="http://www.w3.org/2000/svg" width="17" height="18" viewBox="0 0 17 18">
    <path fill="#FFF" d="M13.554 12.723c-.687 0-1.301.271-1.77.696L5.34 9.669c.046-.208.082-.416.082-.633 0-.217-.036-.425-.082-.632l6.37-3.714c.489.452 1.13.732 1.844.732 1.5 0 2.711-1.211 2.711-2.711 0-1.5-1.21-2.711-2.71-2.711s-2.712 1.21-2.712 2.71c0 .218.037.426.082.633l-6.37 3.714c-.489-.452-1.13-.732-1.844-.732C1.21 6.325 0 7.536 0 9.036c0 1.5 1.21 2.711 2.71 2.711.715 0 1.356-.28 1.844-.732l6.434 3.76c-.045.189-.072.388-.072.586 0 1.455 1.183 2.639 2.638 2.639 1.455 0 2.639-1.184 2.639-2.639 0-1.454-1.184-2.638-2.639-2.638z"/>
</svg>
